<svg width="61" height="76" viewBox="0 0 61 76" fill="none" xmlns="http://www.w3.org/2000/svg">
<path d="M30.1667 37.7083C32.2406 37.7083 34.0161 36.9699 35.493 35.493C36.9699 34.0161 37.7083 32.2406 37.7083 30.1667C37.7083 28.0927 36.9699 26.3173 35.493 24.8404C34.0161 23.3635 32.2406 22.625 30.1667 22.625C28.0927 22.625 26.3173 23.3635 24.8404 24.8404C23.3635 26.3173 22.625 28.0927 22.625 30.1667C22.625 32.2406 23.3635 34.0161 24.8404 35.493C26.3173 36.9699 28.0927 37.7083 30.1667 37.7083ZM30.1667 75.4167C20.0483 66.8066 12.4909 58.8093 7.49453 51.4247C2.49818 44.0402 0 37.2056 0 30.9208C0 21.4938 3.03238 13.9835 9.09714 8.39011C15.1619 2.7967 22.1851 0 30.1667 0C38.1483 0 45.1714 2.7967 51.2362 8.39011C57.301 13.9835 60.3333 21.4938 60.3333 30.9208C60.3333 37.2056 57.8352 44.0402 52.8388 51.4247C47.8424 58.8093 40.2851 66.8066 30.1667 75.4167Z" fill="#5F6368"/>
<circle cx="29.9448" cy="31.2756" r="28.614" fill="#5F6368"/>
<path d="M18.5623 50.5733C18.0066 50.5733 17.5408 50.3853 17.1649 50.0094C16.789 49.6335 16.601 49.1677 16.601 48.612V44.5913C16.0126 43.9376 15.5386 43.2103 15.1791 42.4094C14.8195 41.6085 14.6397 40.7341 14.6397 39.7861V21.1538C14.6397 18.4407 15.8982 16.4548 18.4152 15.1963C20.9322 13.9378 24.9038 13.3086 30.3301 13.3086C35.9525 13.3086 39.9732 13.9133 42.3921 15.1228C44.811 16.3323 46.0205 18.3426 46.0205 21.1538V39.7861C46.0205 40.7341 45.8407 41.6085 45.4812 42.4094C45.1216 43.2103 44.6476 43.9376 44.0592 44.5913V48.612C44.0592 49.1677 43.8713 49.6335 43.4953 50.0094C43.1194 50.3853 42.6536 50.5733 42.0979 50.5733H40.1366C39.5809 50.5733 39.1151 50.3853 38.7392 50.0094C38.3633 49.6335 38.1753 49.1677 38.1753 48.612V46.6507H22.4849V48.612C22.4849 49.1677 22.297 49.6335 21.921 50.0094C21.5451 50.3853 21.0793 50.5733 20.5236 50.5733H18.5623ZM30.4282 19.1925H41.4115H19.4449H30.4282ZM38.1753 32.9216H18.5623H42.0979H38.1753ZM18.5623 28.999H42.0979V23.1151H18.5623V28.999ZM23.4656 40.7668C24.2828 40.7668 24.9774 40.4808 25.5494 39.9087C26.1215 39.3367 26.4075 38.6421 26.4075 37.8248C26.4075 37.0076 26.1215 36.313 25.5494 35.741C24.9774 35.1689 24.2828 34.8829 23.4656 34.8829C22.6484 34.8829 21.9537 35.1689 21.3817 35.741C20.8096 36.313 20.5236 37.0076 20.5236 37.8248C20.5236 38.6421 20.8096 39.3367 21.3817 39.9087C21.9537 40.4808 22.6484 40.7668 23.4656 40.7668ZM37.1947 40.7668C38.0119 40.7668 38.7065 40.4808 39.2785 39.9087C39.8506 39.3367 40.1366 38.6421 40.1366 37.8248C40.1366 37.0076 39.8506 36.313 39.2785 35.741C38.7065 35.1689 38.0119 34.8829 37.1947 34.8829C36.3775 34.8829 35.6828 35.1689 35.1108 35.741C34.5387 36.313 34.2527 37.0076 34.2527 37.8248C34.2527 38.6421 34.5387 39.3367 35.1108 39.9087C35.6828 40.4808 36.3775 40.7668 37.1947 40.7668ZM19.4449 19.1925H41.4115C40.9211 18.6368 39.8669 18.171 38.2489 17.7951C36.6308 17.4192 34.0239 17.2312 30.4282 17.2312C26.9305 17.2312 24.3727 17.4355 22.7546 17.8441C21.1365 18.2527 20.0333 18.7022 19.4449 19.1925ZM22.4849 42.7281H38.1753C39.254 42.7281 40.1775 42.344 40.9456 41.5758C41.7138 40.8077 42.0979 39.8842 42.0979 38.8055V32.9216H18.5623V38.8055C18.5623 39.8842 18.9464 40.8077 19.7146 41.5758C20.4827 42.344 21.4062 42.7281 22.4849 42.7281Z" fill="white"/>
</svg>
