<svg width="18" height="21" viewBox="0 0 18 21" fill="none" xmlns="http://www.w3.org/2000/svg">
<path d="M9.00001 1.79004C7.04028 1.79004 5.45161 3.37871 5.45161 5.33844C5.45161 7.29816 7.04028 8.88684 9.00001 8.88684C10.9597 8.88684 12.5484 7.29816 12.5484 5.33844C12.5484 3.37871 10.9597 1.79004 9.00001 1.79004ZM9.00001 7.27395C7.93106 7.27395 7.0645 6.40738 7.0645 5.33844C7.0645 4.26949 7.93106 3.40297 9.00001 3.40297C10.069 3.40297 10.9355 4.26953 10.9355 5.33848C10.9355 6.40742 10.069 7.27395 9.00001 7.27395Z" fill="#FFDFDB"/>
<path d="M14.5646 20.1822H2.5384C1.82578 20.1822 1.24809 19.6045 1.24809 18.8919V14.2197C1.24809 11.6309 3.34676 9.53223 5.93559 9.53223H15.7743C16.4869 9.53223 17.0646 10.1099 17.0646 10.8225V15.6613L14.5646 20.1822Z" fill="#CCEFFA"/>
<path d="M2.87094 19.8548C2.15828 19.8548 1.58059 19.2771 1.58059 18.5645V17.9268L0.935432 18.8871V19.2096C0.935432 19.9223 1.51313 20.5 2.22578 20.5H6.41934L7.65 19.8548H2.87094Z" fill="#A5E3F0"/>
<path d="M12.2258 12.4355H9.32258V9.53223H2.22578C1.99063 9.53223 1.77016 9.59516 1.58028 9.70504L1.29547 10.8225V17.0508L1.58063 18.242L2.53215 17.2905C2.95563 16.867 3.52996 16.6291 4.12883 16.6291H4.48383C5.01832 16.6291 5.45157 16.1958 5.45157 15.6614C5.45157 15.305 5.74043 15.0162 6.09672 15.0162H12.2258C12.5821 15.0162 12.8709 14.7273 12.8709 14.3711V13.0807C12.871 12.7243 12.5822 12.4355 12.2258 12.4355Z" fill="#98DB7C"/>
<path d="M13.8343 5.11862C13.7266 2.48663 11.4461 0.40382 8.81379 0.503429C8.55688 0.513156 8.30508 0.542922 8.05992 0.591164C5.83754 1.02874 4.53641 2.98792 4.53641 5.33862C4.53641 9.00339 8.02047 12.1926 8.95242 12.9964L9.59809 12.8799C10.9217 11.6595 13.9714 8.47206 13.8343 5.11862ZM9 7.91929C7.57473 7.91929 6.41934 6.7639 6.41934 5.33862C6.41934 3.91335 7.57473 2.75796 9 2.75796C10.4253 2.75796 11.5807 3.91335 11.5807 5.33862C11.5807 6.7639 10.4253 7.91929 9 7.91929Z" fill="#FF5F7A"/>
<path d="M15.4516 15.6612C15.0953 15.6612 14.8065 15.95 14.8065 16.3063V17.1128C14.8065 17.4691 14.5176 17.7579 14.1613 17.7579H10.2302C9.54583 17.7579 8.88942 18.0298 8.40544 18.5138L7.0645 19.8547L7.59067 20.2152H15.7742L16.892 19.8547C17.0017 19.6649 17.0646 19.4446 17.0646 19.2095V15.6611L15.4516 15.6612Z" fill="#98DB7C"/>
<path d="M4.97134 5.10184C4.97134 3.05023 6.25751 1.29469 8.0599 0.59082C5.84189 1.0318 4.16126 2.99066 4.16126 5.33828C4.16126 9.00305 7.85661 12.4214 8.78857 13.2253C8.91001 13.33 9.08782 13.3318 9.20931 13.2271C9.30907 13.1411 9.44232 13.0232 9.59806 12.8796C8.63236 12.0661 4.97134 8.74258 4.97134 5.10184Z" fill="#FB4455"/>
<path d="M1.58059 9.70605C1.19653 9.92957 0.935432 10.3466 0.935432 10.823V18.8875L1.58059 18.2424V9.70605Z" fill="#77CC7D"/>
<path d="M16.8919 19.8555H7.06445L6.4193 20.5006H15.7742C16.2506 20.5006 16.6684 20.2395 16.8919 19.8555Z" fill="#77CC7D"/>
</svg>
